<?xml version="1.0" encoding="UTF-8"?>
<svg xmlns="http://www.w3.org/2000/svg" viewBox="0 0 166 204">
  <defs>
    <style>
      .cls-1 {
        fill: none;
      }

      .cls-2 {
        fill: #e6e7e8;
      }

      .cls-3 {
        fill: #f7941e;
      }

      .cls-4 {
        fill: #f1f2f2;
      }

      .cls-5 {
        fill: #939598;
      }

      .cls-6 {
        fill: #d12f3e;
      }

      .cls-7 {
        fill: #bcbec0;
      }

      .cls-8 {
        fill: #a7a9ac;
      }

      .cls-9, .cls-10 {
        fill: #be1e2d;
      }

      .cls-11 {
        fill: #d1d3d4;
      }

      .cls-12 {
        fill: #a23;
      }

      .cls-13 {
        fill: #231f20;
      }

      .cls-14 {
        fill: #414042;
      }

      .cls-15 {
        fill: #6d6e71;
      }

      .cls-16 {
        fill: #808285;
      }

      .cls-17 {
        fill: #58595b;
      }

      .cls-10 {
        mix-blend-mode: multiply;
      }

      .cls-18 {
        isolation: isolate;
      }
    </style>
  </defs>
  <g class="cls-18">
    <g id="Layer_2" data-name="Layer 2">
      <g id="Layer_2-2" data-name="Layer 2">
        <rect class="cls-1" width="166" height="204"/>
        <g>
          <path class="cls-12" d="m92.76,118.22s6.2,2.82,8.27,4.89c2.07,2.07,7.33,1.13,9.02.75,1.69-.38.19,1.88,0,2.82-.19.94-8.27-1.69-9.58-3.01-1.32-1.31-7.9-4.51-7.9-4.51l.19-.94Z"/>
          <path class="cls-2" d="m127.19,116.31c-14.73,0-25.3-3.85-25.3-3.85-5.55-3.85-12.03-8.01-27.64-9.99-5.46-.69-10.75-.55-15.45.07-3.96-1.87-11.29-4.28-14.35-3.38-4.8,1.41-7.46,5.56-10.01,8.81-2.16,2.76,5.37,3.95,10.16,5.36.29.09.62.14.98.16,4.11,1.03,10.02,5.94,19.64,8.14,12.4,2.84,27.59.3,34.73-1.74,5.79,2.37,34.54,6.99,38.06,7.46,4.24.56-6.84-11.05-10.84-11.05Z"/>
          <path class="cls-6" d="m34.35,108.07s-4.5,1.48-5,2.37c-.4.72-.91,1.84-1.09,2.24,1.13-.98,3.71-2.42,9.99-3.91l-3.9-.7Z"/>
          <path class="cls-9" d="m28.26,112.68c-.04.1-.07.15-.07.15l7.88-2.13s1.05-1.61,1.71-1.76l.66-.15-.19-.03c-6.28,1.49-8.86,2.93-9.99,3.91Z"/>
          <g>
            <path class="cls-3" d="m44.41,105.08c.12.69-.55,1.38-1.5,1.54-.94.16-1.81-.26-1.92-.95-.12-.69.55-1.38,1.5-1.54.94-.16,1.81.26,1.92.95Z"/>
            <path class="cls-13" d="m44.41,105.08s.05.15-.01.41c-.02.13-.09.28-.18.44-.1.16-.24.32-.42.47-.18.15-.4.3-.66.4-.31.12-.49.18-.88.2-.33,0-.68-.04-1.02-.24-.34-.18-.64-.54-.74-1v-.08s0-.01,0-.01v-.08s0-.11,0-.11c0-.07.03-.24.06-.35.07-.24.17-.4.31-.54.25-.3.57-.46.88-.57.31-.09.62-.13.9-.11.25.01.55.07.76.16.22.09.41.19.55.3.14.12.26.23.32.35.14.22.13.39.15.38Zm0,0s-.01-.16-.17-.36c-.14-.21-.47-.43-.9-.46-.23-.02-.41,0-.66.07-.23.06-.44.18-.64.31-.18.14-.36.3-.45.48-.05.08-.08.19-.1.23,0,.03-.02,0-.02.08v.11s.01.05.01.05v.03s0,.01,0,.01h0c0,.07,0-.07,0-.05.02.26.39.58.84.7.17.06.53.1.71.08.24,0,.46-.07.65-.15.39-.17.63-.49.69-.73.08-.25.02-.4.04-.4Z"/>
          </g>
          <path class="cls-3" d="m44.31,105.1c.12.69-.53,1.37-1.45,1.53-.92.16-1.76-.27-1.87-.96-.12-.69.53-1.37,1.45-1.53.92-.16,1.76.27,1.87.96Z"/>
          <path class="cls-13" d="m43.56,105.16c.11.65-.38,1.28-1.09,1.4-.71.12-1.38-.31-1.49-.96-.11-.65.37-1.28,1.09-1.4.71-.12,1.38.31,1.49.96Z"/>
          <path class="cls-2" d="m42.54,105.23c.07.4-.17.49-.62.57-.44.08-.92.11-.99-.29-.07-.4.23-.79.68-.87.44-.07.86.19.93.6Z"/>
          <path class="cls-9" d="m34.35,108.07l.54-.79s1.35.45,1.81.6c.45.15,1.55.9,1.55.9,0,0-2.23-.37-2.61-.44-.38-.08-1.29-.26-1.29-.26Z"/>
          <path class="cls-10" d="m28.19,112.83s.93-.75,1.75-1.22c.82-.47,5.52-2.09,6.01-2.22.49-.13,2.29-.61,2.29-.61,0,0-4.67,1.83-5.09,1.96-.42.13-4.97,2.1-4.97,2.1Z"/>
          <path class="cls-11" d="m130.89,125.45c-3.89-.36-26.84-6.68-26.84-6.68,0,0-24.54.85-32.31-.24-7.77-1.09-19.31-8.02-22.35-8.02-2.41,0-3.59,2.36-3.98,3.34,4.56,1.16,11.11,6.59,21.76,9.03,13.75,3.15,30.6.33,38.53-1.93,6.42,2.63,22.34,10.37,28.26,10.26,2.03-.04,4.84-1.94,5.2-4.6-1.6-.38-5.97-.94-8.27-1.15Z"/>
          <path class="cls-6" d="m94.37,117.68s6.2,2.82,8.27,4.89c2.07,2.07,7.33,1.13,9.02.75,1.69-.38.19,1.88,0,2.82-.19.94-8.27-1.69-9.58-3.01s-7.89-4.51-7.89-4.51l.19-.94Z"/>
          <g>
            <path class="cls-5" d="m107.59,79.83c.68-.55,11.6-.26,16.51-1.48,28.42-7.08,1.12-8.95,4.04-9.6,17.87-3.99,18.77-7.96,18.77-7.96,0,0-19.16,2.59-18.21,1.66-2.57-.46-5.02-.82-7.19-1.01-8.88,7.53-13.68,14.42-13.92,18.41Z"/>
            <path class="cls-14" d="m128.47,48.99s8.76-2.38,14.13-5.08c5.37-2.7,7.3-11.37,3.72-6.97-1.94,2.38-16.54,6.49-31.63,10.81,1.07,1.41,2.2,3.03,3.23,4.76,3.73-1.03,7.81-2.21,11.96-3.45-.88-.05-1.41-.08-1.41-.08Z"/>
            <path class="cls-14" d="m119.79,56.01c2.15-.04,4.44-.07,6.8-.07l-.09-.03s17.02-.54,21.61-1.68c4.59-1.14,4.59-5.04,2.76-4.59-1.54.38-16.31-.34-20.97-.58-4.15,1.24-8.23,2.42-11.96,3.45.68,1.13,1.31,2.3,1.86,3.5Z"/>
            <path class="cls-16" d="m121.26,59.95c.12.46.2.96.24,1.48,2.17.19,4.62.56,7.19,1.01.2-.2.79.22,1.97.04,23.34-3.57,17.48-6.24,17.48-6.24l-21.56-.3c-2.36,0-4.65.03-6.8.07.6,1.3,1.12,2.62,1.48,3.94Z"/>
          </g>
          <path class="cls-8" d="m107.59,79.83s17.1-2.12,18.16.72-10.8,10.16-16.26,14.54c-5.46,4.38-12.36,10.71-16.32,11.18-3.96.47-12.41.56-14.97,1.63-2.56,1.07,1.31-8.14,1.31-8.14,0,0,11.34-3.12,17.7-10.02,6.36-6.9,9.25-9.93,9.25-9.93l1.13.03Z"/>
          <path class="cls-7" d="m69.41,95.68s9.01-27.82,11.62-30.67c2.61-2.85,32.85-19.99,36.79-17.35,3.94,2.64,6.43,5.24,6.36,8.15-.07,2.91-3.49,9.38-4.64,11.9-1.15,2.52-7.03,4.93-7.03,4.93,0,0-1.95,5.78-3.43,6.84-1.48,1.06-10.98,20.43-20.57,24.28-2.36.95-8.38.54-8.38.54,0,0-2.39,9.04-4.93,8.62l-2.54-.42s-3.88-5.55-4.16-9.19c-.28-3.65.9-7.62.9-7.62Z"/>
          <g>
            <path class="cls-5" d="m109.58,84.88c.73-.49,11.58.71,16.57-.1,28.91-4.69,1.86-8.83,4.82-9.23,18.14-2.48,19.37-6.37,19.37-6.37,0,0-19.3.98-18.29.13-2.52-.67-4.94-1.24-7.08-1.61-9.47,6.76-14.84,13.22-15.4,17.18Z"/>
            <path class="cls-17" d="m132.97,55.89s8.93-1.64,14.51-3.89c5.57-2.25,8.22-10.72,4.29-6.64-2.13,2.21-17.02,5.09-32.42,8.14.95,1.5,1.93,3.21,2.82,5.02,3.8-.71,7.97-1.55,12.2-2.44-.88-.12-1.4-.19-1.4-.19Z"/>
            <path class="cls-15" d="m123.73,62.16c2.14.14,4.43.3,6.78.5l-.09-.03s17,.88,21.67.13c4.66-.76,5-4.64,3.13-4.34-1.57.25-16.22-1.7-20.85-2.33-4.23.89-8.4,1.73-12.2,2.44.58,1.18,1.11,2.4,1.56,3.64Z"/>
            <path class="cls-16" d="m124.87,66.21c.09.47.12.97.12,1.49,2.14.37,4.56.94,7.08,1.61.22-.18.77.29,1.96.21,23.55-1.61,17.94-4.76,17.94-4.76l-21.46-2.09c-2.35-.19-4.64-.35-6.78-.5.49,1.34.9,2.7,1.14,4.05Z"/>
          </g>
          <path class="cls-8" d="m109.58,84.88s17.22-.69,18.04,2.23c.82,2.92-11.61,9.22-17.42,13.14-5.8,3.92-13.21,9.64-17.19,9.78-3.98.14-12.42-.47-15.06.38-2.64.85,1.99-8,1.99-8,0,0,11.56-2.17,18.48-8.51,6.91-6.35,10.04-9.13,10.04-9.13l1.12.12Z"/>
          <path class="cls-4" d="m70.22,97.49s11.29-26.97,14.13-29.59c2.84-2.62,34.4-17.19,38.11-14.23,3.71,2.96,5.97,5.76,5.66,8.65-.31,2.89-4.26,9.06-5.62,11.48-1.36,2.42-7.41,4.33-7.41,4.33,0,0-2.43,5.59-3.99,6.53-1.56.93-12.64,19.44-22.52,22.48-2.43.75-8.4-.17-8.4-.17,0,0-3.13,8.81-5.63,8.18l-2.49-.63s-3.4-5.85-3.38-9.51c.02-3.66,1.53-7.52,1.53-7.52Z"/>
        </g>
      </g>
    </g>
  </g>
</svg>