<?xml version="1.0" encoding="UTF-8"?>
<svg xmlns="http://www.w3.org/2000/svg" viewBox="0 0 166 204">
  <defs>
    <style>
      .cls-1 {
        fill: none;
      }

      .cls-2 {
        fill: #e6e7e8;
      }

      .cls-3 {
        fill: #f7941e;
      }

      .cls-4 {
        fill: #f1f2f2;
      }

      .cls-5 {
        fill: #939598;
      }

      .cls-6 {
        fill: #d12f3e;
      }

      .cls-7 {
        fill: #bcbec0;
      }

      .cls-8 {
        fill: #a7a9ac;
      }

      .cls-9 {
        fill: #bfc2c4;
      }

      .cls-10, .cls-11 {
        fill: #be1e2d;
      }

      .cls-12 {
        fill: #a23;
      }

      .cls-13 {
        fill: #231f20;
      }

      .cls-14 {
        fill: #414042;
      }

      .cls-15 {
        fill: #6d6e71;
      }

      .cls-16 {
        fill: #808285;
      }

      .cls-17 {
        fill: #58595b;
      }

      .cls-11 {
        mix-blend-mode: multiply;
      }

      .cls-18 {
        isolation: isolate;
      }
    </style>
  </defs>
  <g class="cls-18">
    <g id="Layer_2" data-name="Layer 2">
      <g id="Layer_2-2" data-name="Layer 2">
        <rect class="cls-1" width="166" height="204"/>
        <g>
          <g>
            <g>
              <path class="cls-5" d="m48.14,143.74c-.62.62-1.49,11.5-3.23,16.26-10.06,27.51-9.02.16-9.98,3-5.86,17.35-9.91,17.82-9.91,17.82,0,0,4.6-18.77,3.58-17.93-.18-2.6-.29-5.08-.25-7.25,8.43-8.03,15.79-12.08,19.78-11.89Z"/>
              <path class="cls-14" d="m15.25,161.24s-3.3,8.46-6.55,13.51c-3.26,5.05-12.08,6.05-7.33,2.96,2.57-1.67,8.21-15.76,14.1-30.3,1.29,1.22,2.78,2.5,4.39,3.72-1.42,3.6-3.02,7.53-4.7,11.52.05-.88.08-1.41.08-1.41Z"/>
              <path class="cls-14" d="m23.16,153.34c-.26,2.13-.54,4.41-.79,6.75l-.02-.09s-2.34,16.87-3.96,21.31c-1.62,4.44-5.5,4.03-4.85,2.25.55-1.49,1.39-16.25,1.64-20.92,1.67-3.99,3.28-7.92,4.7-11.52,1.05.79,2.15,1.54,3.28,2.22Z"/>
              <path class="cls-16" d="m26.92,155.23c.45.17.93.3,1.44.4-.04,2.17.06,4.65.25,7.25-.22.18.14.81-.17,1.97-6.02,22.83-8.06,16.72-8.06,16.72l1.99-21.47c.25-2.34.53-4.62.79-6.75,1.23.73,2.48,1.39,3.76,1.88Z"/>
            </g>
            <path class="cls-8" d="m48.14,143.74s-3.93,16.78-1.21,18.14c2.71,1.36,11.25-9.67,16.19-14.62,4.94-4.96,11.96-11.16,12.85-15.04.89-3.88,1.87-12.28,3.21-14.72,1.33-2.43-8.24.44-8.24.44,0,0-4.31,10.95-11.84,16.54-7.54,5.59-10.86,8.14-10.86,8.14l-.09,1.12Z"/>
            <path class="cls-7" d="m67.94,107.46s-28.61,6-31.73,8.3c-3.11,2.3-23.36,30.54-21.16,34.74s4.53,6.95,7.43,7.19c2.9.24,9.7-2.48,12.33-3.35,2.63-.88,5.65-6.46,5.65-6.46,0,0,5.95-1.33,7.16-2.69,1.21-1.36,21.47-8.75,26.32-17.88,1.19-2.25,1.42-8.28,1.42-8.28,0,0,9.25-1.42,9.1-3.99l-.15-2.57s-5.11-4.44-8.7-5.11c-3.6-.67-7.67.09-7.67.09Z"/>
          </g>
          <g>
            <g>
              <path class="cls-12" d="m91.92,117.62s6.2,2.82,8.27,4.89c2.07,2.07,7.33,1.13,9.02.75,1.69-.38.19,1.88,0,2.82-.19.94-8.27-1.69-9.58-3.01-1.32-1.31-7.9-4.51-7.9-4.51l.19-.94Z"/>
              <path class="cls-4" d="m101.04,111.86c-5.55-3.85-12.03-8.01-27.64-9.99-5.46-.69-10.75-.55-15.45.07-3.96-1.87-11.29-4.28-14.35-3.38-4.8,1.41-7.46,5.56-10.01,8.81-2.16,2.76,5.37,3.95,10.16,5.36.29.09.62.14.98.16,4.11,1.03,10.02,5.94,19.64,8.14,12.4,2.84,27.59.3,34.73-1.74,5.79,2.37,34.69,10.8,38.22,11.27,1.68.22,2.61-1.49,2.86-3.68.96-8.55-8.87-9-9.98-9.13-17.33-2-29.17-5.9-29.17-5.9Z"/>
              <g>
                <path class="cls-6" d="m33.5,107.47s-4.5,1.48-5,2.37c-.4.72-.91,1.84-1.09,2.24,1.13-.98,3.71-2.42,9.99-3.91l-3.9-.7Z"/>
                <path class="cls-10" d="m27.41,112.09c-.04.1-.07.15-.07.15l7.88-2.13s1.05-1.61,1.71-1.76l.66-.15-.19-.03c-6.28,1.49-8.86,2.93-9.99,3.91Z"/>
              </g>
              <g>
                <path class="cls-3" d="m43.56,104.48c.12.69-.55,1.38-1.5,1.54-.94.16-1.81-.26-1.92-.95-.12-.69.55-1.38,1.5-1.54.94-.16,1.81.26,1.92.95Z"/>
                <path class="cls-13" d="m43.56,104.48s.05.15-.01.4c-.02.13-.09.28-.18.44-.1.16-.24.32-.42.47-.18.15-.4.3-.66.4-.31.12-.49.18-.88.2-.33,0-.68-.04-1.02-.24-.34-.18-.64-.54-.74-1v-.08s0-.01,0-.01v-.08s0-.11,0-.11c0-.07.03-.24.06-.35.07-.24.17-.4.31-.54.25-.3.57-.46.88-.57.31-.09.62-.13.9-.11.25.01.55.07.76.16.22.08.41.18.55.3.14.12.26.23.32.35.14.22.13.39.15.38Zm0,0s-.01-.16-.17-.36c-.14-.21-.47-.43-.9-.46-.23-.02-.41,0-.66.07-.23.06-.44.18-.64.31-.18.14-.36.3-.45.48-.05.08-.08.19-.1.23,0,.03-.02,0-.02.08v.11s.01.06.01.06v.03s0,.01,0,.01h0c0,.07,0-.07,0-.05.02.26.39.58.84.7.17.06.53.1.71.08.24,0,.46-.07.65-.15.39-.17.63-.49.69-.73.08-.25.02-.4.04-.4Z"/>
              </g>
              <path class="cls-3" d="m43.47,104.5c.12.69-.53,1.37-1.45,1.53-.92.16-1.76-.27-1.87-.96-.12-.69.53-1.37,1.45-1.53.92-.16,1.76.27,1.87.96Z"/>
              <path class="cls-13" d="m42.71,104.56c.11.65-.38,1.28-1.09,1.4-.71.12-1.38-.31-1.49-.96-.11-.65.37-1.28,1.09-1.4.71-.12,1.38.31,1.49.96Z"/>
              <path class="cls-2" d="m41.7,104.63c.07.4-.17.49-.62.57-.44.08-.92.11-.99-.29-.07-.4.23-.79.68-.87.44-.07.86.19.93.6Z"/>
              <path class="cls-10" d="m33.5,107.47l.54-.79s1.35.45,1.81.6c.45.15,1.55.9,1.55.9,0,0-2.23-.37-2.61-.44-.38-.08-1.29-.26-1.29-.26Z"/>
              <path class="cls-11" d="m27.35,112.24s.93-.75,1.75-1.22c.82-.47,5.52-2.09,6.01-2.22.49-.13,2.29-.61,2.29-.61,0,0-4.67,1.83-5.09,1.96s-4.97,2.1-4.97,2.1Z"/>
              <path class="cls-9" d="m139.99,127.26s-40.46-9.53-40.56-8.95h0c-2.05,0-13.15.03-18.11.54-5.49.56-12.92,2.42-12.92,2.42,0,0,8.74,1.3,10.79,1.3s9.21-1.12,11.9-1.49c2.5-.34,6.91-1.49,7.93-1.76.74.24,4.29,1.51,12.75,5.82,4.81,2.45,19.48,5,25.54,5.72.86.1,3.18.05,2.5-1.3-.21-.42-.33-.64-.41-.77.22,0,.92,0,1.08-.48.19-.58-.48-1.06-.48-1.06Z"/>
              <path class="cls-6" d="m93.53,117.09s6.2,2.82,8.27,4.89c2.07,2.07,7.33,1.13,9.02.75,1.69-.38.19,1.88,0,2.82-.19.94-8.27-1.69-9.58-3.01-1.32-1.32-7.89-4.51-7.89-4.51l.19-.94Z"/>
            </g>
            <path class="cls-2" d="m100.5,115.8c-.31-.48-.49-.84-.49-.84,0,0,.27.34.49.84Z"/>
          </g>
          <g>
            <g>
              <path class="cls-5" d="m52.94,146.26c-.57.67-.53,11.59-1.86,16.47-7.73,28.25-8.97.92-9.69,3.82-4.39,17.78-8.39,18.58-8.39,18.58,0,0,3.02-19.09,2.07-18.17-.4-2.58-.71-5.04-.85-7.21,7.73-8.7,14.72-13.35,18.72-13.49Z"/>
              <path class="cls-17" d="m21.63,166.44s-2.58,8.71-5.4,14.01c-2.82,5.31-11.53,7.04-7.05,3.56,2.42-1.88,6.87-16.39,11.53-31.37,1.39,1.1,2.98,2.26,4.69,3.34-1.11,3.71-2.39,7.76-3.72,11.87-.03-.89-.04-1.41-.04-1.41Z"/>
              <path class="cls-15" d="m28.85,157.92c-.09,2.15-.17,4.44-.23,6.79l-.02-.09s-.92,17-2.17,21.56c-1.25,4.56-5.15,4.48-4.65,2.65.42-1.53.03-16.31-.1-20.98,1.33-4.12,2.61-8.17,3.72-11.87,1.11.7,2.27,1.36,3.46,1.94Z"/>
              <path class="cls-16" d="m32.75,159.48c.46.14.95.22,1.47.27.14,2.17.45,4.63.85,7.21-.21.2.2.79,0,1.97-4.1,23.25-6.64,17.33-6.64,17.33l.19-21.56c.06-2.35.14-4.65.23-6.79,1.28.63,2.59,1.18,3.9,1.56Z"/>
            </g>
            <path class="cls-8" d="m52.94,146.26s-2.51,17.05.3,18.18c2.82,1.13,10.4-10.57,14.91-15.92,4.51-5.35,10.99-12.12,11.55-16.06.56-3.94.85-12.4,1.97-14.93,1.13-2.54-8.17,1.13-8.17,1.13,0,0-3.38,11.27-10.42,17.47-7.04,6.2-10.14,9.02-10.14,9.02v1.13Z"/>
            <path class="cls-4" d="m69.66,108.46s-28.02,8.37-30.93,10.91c-2.91,2.55-20.74,32.38-18.19,36.38,2.55,4,5.09,6.55,8,6.55s9.46-3.27,12.01-4.37c2.55-1.09,5.09-6.91,5.09-6.91,0,0,5.82-1.82,6.91-3.27,1.09-1.45,20.67-10.51,24.74-20.01,1-2.34.73-8.37.73-8.37,0,0,9.1-2.18,8.73-4.73l-.36-2.55s-5.46-4-9.1-4.37c-3.64-.36-7.64.73-7.64.73Z"/>
          </g>
        </g>
      </g>
    </g>
  </g>
</svg>