<?xml version="1.0" encoding="UTF-8"?>
<svg xmlns="http://www.w3.org/2000/svg" viewBox="0 0 166 204">
  <defs>
    <style>
      .cls-1 {
        fill: none;
      }

      .cls-2 {
        fill: #e6e7e8;
      }

      .cls-3 {
        fill: #f7941e;
      }

      .cls-4 {
        fill: #f1f2f2;
      }

      .cls-5 {
        fill: #939598;
      }

      .cls-6 {
        fill: #d12f3e;
      }

      .cls-7 {
        fill: #a7a9ac;
      }

      .cls-8, .cls-9 {
        fill: #be1e2d;
      }

      .cls-10 {
        fill: #d1d3d4;
      }

      .cls-11 {
        fill: #a23;
      }

      .cls-12 {
        fill: #231f20;
      }

      .cls-13 {
        fill: #414042;
      }

      .cls-14 {
        fill: #6d6e71;
      }

      .cls-15 {
        fill: #808285;
      }

      .cls-16 {
        fill: #58595b;
      }

      .cls-9 {
        mix-blend-mode: multiply;
      }

      .cls-17 {
        isolation: isolate;
      }
    </style>
  </defs>
  <g class="cls-17">
    <g id="Layer_2" data-name="Layer 2">
      <g id="Layer_2-2" data-name="Layer 2">
        <rect class="cls-1" width="166" height="204"/>
        <g>
          <g>
            <path class="cls-5" d="m96.58,59.67c.3-.83,9.79-6.22,13.36-9.81,20.65-20.77-3.67-8.24-1.51-10.3,13.23-12.66,11.94-16.53,11.94-16.53,0,0-15.05,12.12-14.73,10.84-2.43.93-4.72,1.89-6.67,2.85-3.7,11.04-4.25,19.42-2.39,22.95Z"/>
            <path class="cls-13" d="m98.77,23.04s4.7-7.77,6.72-13.43c2.02-5.66-2.57-13.27-2.12-7.61.24,3.06-7.48,16.12-15.42,29.66,1.75.28,3.68.68,5.62,1.22,1.99-3.32,4.12-6.99,6.27-10.75-.67.58-1.07.92-1.07.92Z"/>
            <path class="cls-13" d="m96.28,36.45c1.41-1.62,2.93-3.34,4.51-5.09l-.08.05s11.02-12.98,13.25-17.15c2.23-4.17-.66-6.79-1.55-5.12-.75,1.4-11.19,11.87-14.5,15.17-1.86,3.91-3.72,7.73-5.46,11.18,1.29.26,2.58.57,3.84.97Z"/>
            <path class="cls-15" d="m98,35.58c.34.33.66.71.97,1.14,1.95-.96,4.24-1.92,6.67-2.85.07-.28.79-.22,1.71-.99,18.12-15.13,11.73-14.39,11.73-14.39l-18.6,10.9c-2.01,1.22-3.96,2.43-5.78,3.58,1.18.8,2.31,1.66,3.3,2.61Z"/>
            <path class="cls-7" d="m96.15,59.3s13.39-10.91,15.93-8.76c2.54,2.16-3.4,15.31-5.54,22.33-2.14,7.02-4.42,16.64-7.53,19.15-3.11,2.51-10.28,6.99-11.86,9.34-1.58,2.35-3.55-8.45-3.55-8.45,0,0,7.9-8.88,9.37-18.77,1.47-9.89,2.2-14.29,2.2-14.29l.98-.56Z"/>
            <path class="cls-7" d="m69.72,77.38c.34-3.85,15.44-48.29,20.17-48.07,4.74.22,8.21,1.16,9.66,3.68,1.45,2.52,1.87,9.83,2.19,12.59.32,2.75-3.46,7.86-3.46,7.86,0,0,1.32,5.95.6,7.62s1.17,23.16-5.04,31.42c-1.53,2.03-6.9,4.79-6.9,4.79,0,0,2.63,8.98.25,9.93-2.39.95-2.16,6.06-2.16,6.06,0,0-21.74,2.01-23.87-.97-2.13-2.98,7.89-27.4,8.55-34.92Z"/>
          </g>
          <path class="cls-11" d="m92.42,118.42s6.2,2.82,8.27,4.89c2.07,2.07,7.33,1.13,9.02.75,1.69-.38.19,1.88,0,2.82-.19.94-8.27-1.69-9.58-3.01-1.32-1.31-7.9-4.51-7.9-4.51l.19-.94Z"/>
          <path class="cls-2" d="m126.85,116.51c-14.73,0-25.3-3.85-25.3-3.85-5.55-3.85-12.03-8.01-27.64-9.99-5.46-.69-10.75-.55-15.45.07-3.96-1.87-11.29-4.28-14.35-3.38-4.8,1.41-7.46,5.56-10.01,8.81-2.16,2.76,5.37,3.95,10.16,5.36.29.09.62.14.98.16,4.11,1.03,10.02,5.94,19.64,8.14,12.4,2.84,27.59.3,34.74-1.74,5.79,2.37,34.54,6.99,38.06,7.46,4.24.56-6.84-11.05-10.84-11.05Z"/>
          <g>
            <path class="cls-6" d="m34.01,108.27s-4.5,1.48-5,2.37c-.4.72-.91,1.84-1.09,2.24,1.13-.98,3.71-2.42,9.99-3.91l-3.9-.7Z"/>
            <path class="cls-8" d="m27.92,112.89c-.04.1-.07.15-.07.15l7.88-2.13s1.05-1.61,1.71-1.76l.66-.15-.19-.03c-6.28,1.49-8.86,2.93-9.99,3.91Z"/>
          </g>
          <g>
            <path class="cls-3" d="m44.07,105.28c.12.69-.55,1.38-1.5,1.54s-1.81-.26-1.92-.95c-.12-.69.55-1.38,1.5-1.54.94-.16,1.8.26,1.92.95Z"/>
            <path class="cls-12" d="m44.07,105.28s.05.15-.01.41c-.02.13-.09.28-.18.44-.09.16-.24.32-.42.47-.18.15-.4.3-.66.4-.31.12-.49.18-.88.2-.33,0-.68-.04-1.02-.24-.34-.18-.64-.54-.74-1v-.08s0-.01,0-.01v-.08s0-.11,0-.11c0-.07.03-.24.06-.35.07-.24.17-.4.3-.54.25-.3.57-.46.88-.57.31-.09.62-.13.9-.11.25.01.55.07.76.16.22.09.41.19.55.3.14.12.26.23.32.35.14.22.13.39.15.38Zm0,0s-.01-.16-.17-.36c-.14-.21-.47-.43-.9-.46-.23-.02-.41,0-.66.07-.23.06-.44.18-.64.31-.18.14-.36.3-.45.48-.05.08-.08.19-.1.23,0,.03-.02,0-.02.08v.11s.01.05.01.05v.03s0,.01,0,.01h0s0,0,0,0c0,.06,0-.08,0-.06.02.26.38.58.84.7.17.06.53.1.71.08.24,0,.46-.07.65-.15.39-.17.63-.49.69-.73.08-.25.02-.4.04-.4Z"/>
          </g>
          <path class="cls-3" d="m43.97,105.3c.12.69-.53,1.37-1.45,1.53-.92.16-1.76-.27-1.87-.96-.12-.69.53-1.37,1.45-1.53s1.76.27,1.87.96Z"/>
          <path class="cls-12" d="m43.22,105.36c.11.65-.38,1.28-1.09,1.4-.71.12-1.38-.31-1.49-.95-.11-.65.37-1.28,1.09-1.4.71-.12,1.38.31,1.49.96Z"/>
          <path class="cls-2" d="m42.2,105.43c.07.4-.17.49-.62.57-.44.08-.92.11-.99-.29s.23-.79.68-.87c.44-.07.86.19.93.6Z"/>
          <path class="cls-8" d="m34.01,108.27l.54-.79s1.35.45,1.8.6c.45.15,1.55.9,1.55.9,0,0-2.23-.37-2.61-.44-.38-.08-1.29-.26-1.29-.26Z"/>
          <path class="cls-9" d="m27.85,113.04s.93-.75,1.75-1.22,5.52-2.09,6.01-2.22c.49-.13,2.29-.61,2.29-.61,0,0-4.67,1.83-5.09,1.96-.42.13-4.97,2.1-4.97,2.1Z"/>
          <g>
            <path class="cls-5" d="m104.22,60.53c.4-.78,10.49-4.95,14.48-8.07,23.08-18.03-2.62-8.63-.21-10.41,14.71-10.91,13.91-14.91,13.91-14.91,0,0-16.45,10.15-15.96,8.92-2.53.62-4.92,1.29-6.98,1.99-5.05,10.49-6.64,18.74-5.23,22.48Z"/>
            <path class="cls-16" d="m110.97,24.46s5.63-7.13,8.34-12.49c2.71-5.36-.89-13.48-1.15-7.82-.14,3.07-9.44,15.06-19,27.5,1.7.5,3.57,1.13,5.43,1.91,2.39-3.04,4.96-6.42,7.56-9.88-.74.49-1.18.78-1.18.78Z"/>
            <path class="cls-14" d="m106.82,37.46c1.6-1.43,3.32-2.95,5.11-4.49l-.08.04s12.55-11.5,15.28-15.36c2.73-3.86.19-6.82-.9-5.28-.92,1.3-12.59,10.38-16.28,13.24-2.33,3.64-4.66,7.2-6.81,10.41,1.25.41,2.49.89,3.69,1.44Z"/>
            <path class="cls-15" d="m108.64,36.81c.3.37.57.79.82,1.25,2.05-.71,4.45-1.37,6.98-1.99.11-.27.81-.12,1.82-.77,19.87-12.75,13.43-12.81,13.43-12.81l-19.82,8.5c-2.15.96-4.23,1.92-6.18,2.83,1.07.94,2.08,1.94,2.95,3Z"/>
            <path class="cls-7" d="m103.84,60.11s14.65-9.16,16.9-6.7c2.25,2.46-5.29,14.77-8.29,21.47-3,6.7-6.46,15.96-9.86,18.06-3.4,2.1-11.07,5.65-12.93,7.78-1.86,2.14-2.47-8.83-2.47-8.83,0,0,8.95-7.82,11.64-17.45,2.69-9.63,3.96-13.9,3.96-13.9l1.04-.43Z"/>
            <path class="cls-4" d="m75.36,74.75c.81-3.78,21.34-45.98,26.01-45.18,4.67.81,8.01,2.18,9.13,4.86,1.12,2.69.62,9.99.6,12.76-.03,2.77-4.41,7.37-4.41,7.37,0,0,.57,6.07-.36,7.64-.92,1.57-1.72,23.12-8.92,30.54-1.77,1.83-7.44,3.9-7.44,3.9,0,0,1.49,9.23-1,9.88-2.49.65-2.89,5.75-2.89,5.75,0,0-21.82-.72-23.56-3.94-1.74-3.22,11.25-26.2,12.84-33.58Z"/>
          </g>
          <path class="cls-10" d="m130.55,125.65c-3.89-.36-26.84-6.68-26.84-6.68,0,0-24.54.85-32.31-.24-7.78-1.09-19.31-8.02-22.35-8.02-2.41,0-3.59,2.36-3.98,3.34,4.56,1.16,11.11,6.59,21.76,9.03,13.75,3.15,30.6.33,38.53-1.93,6.42,2.63,22.34,10.37,28.26,10.26,2.03-.04,4.84-1.94,5.2-4.6-1.6-.38-5.97-.94-8.27-1.15Z"/>
          <path class="cls-6" d="m94.03,117.89s6.2,2.82,8.27,4.89c2.07,2.07,7.33,1.13,9.02.75,1.69-.38.19,1.88,0,2.82-.19.94-8.27-1.69-9.58-3.01-1.32-1.32-7.89-4.51-7.89-4.51l.19-.94Z"/>
        </g>
      </g>
    </g>
  </g>
</svg>