<?xml version="1.0" encoding="UTF-8"?>
<svg xmlns="http://www.w3.org/2000/svg" viewBox="0 0 166 204">
  <defs>
    <style>
      .cls-1 {
        fill: none;
      }

      .cls-2 {
        fill: #e6e7e8;
      }

      .cls-3 {
        fill: #f7941e;
      }

      .cls-4 {
        fill: #fff;
      }

      .cls-5 {
        fill: #f1f2f2;
      }

      .cls-6 {
        fill: #939598;
      }

      .cls-7 {
        fill: #d12f3e;
      }

      .cls-8 {
        fill: #bfc2c4;
      }

      .cls-9, .cls-10 {
        fill: #be1e2d;
      }

      .cls-11 {
        fill: #a23;
      }

      .cls-12 {
        fill: #231f20;
      }

      .cls-13 {
        fill: #6d6e71;
      }

      .cls-14 {
        fill: #808285;
      }

      .cls-15 {
        fill: #58595b;
      }

      .cls-10 {
        mix-blend-mode: multiply;
      }

      .cls-16 {
        isolation: isolate;
      }
    </style>
  </defs>
  <g class="cls-16">
    <g id="Layer_2" data-name="Layer 2">
      <g id="Layer_2-2" data-name="Layer 2">
        <rect class="cls-1" width="166" height="204"/>
        <g>
          <g>
            <g>
              <path class="cls-11" d="m91.8,117.93s6.2,2.82,8.27,4.89c2.07,2.07,7.33,1.13,9.02.75,1.69-.38.19,1.88,0,2.82-.19.94-8.27-1.69-9.58-3.01-1.32-1.31-7.9-4.51-7.9-4.51l.19-.94Z"/>
              <path class="cls-5" d="m100.93,112.16c-5.55-3.85-12.03-8.01-27.64-9.99-5.46-.69-10.75-.55-15.45.07-3.96-1.87-11.29-4.28-14.35-3.38-4.8,1.41-7.46,5.56-10.01,8.81-2.16,2.76,5.37,3.95,10.16,5.36.29.09.62.14.98.16,4.11,1.03,10.02,5.94,19.64,8.14,12.4,2.84,27.59.3,34.73-1.74,5.79,2.37,34.69,10.8,38.22,11.27,1.68.22,2.49-1.51,2.86-3.68.18-1.09.25-7.71-8.96-8.86-23.86-2.98-30.19-6.17-30.19-6.17Z"/>
              <g>
                <path class="cls-7" d="m33.39,107.78s-4.5,1.48-5,2.37c-.4.72-.91,1.84-1.09,2.24,1.13-.98,3.71-2.42,9.99-3.91l-3.9-.7Z"/>
                <path class="cls-9" d="m27.3,112.39c-.04.1-.07.15-.07.15l7.88-2.13s1.05-1.61,1.71-1.76l.66-.15-.19-.03c-6.28,1.49-8.86,2.93-9.99,3.91Z"/>
              </g>
              <g>
                <path class="cls-3" d="m43.45,104.79c.12.69-.55,1.38-1.5,1.54-.94.16-1.81-.26-1.92-.95-.12-.69.55-1.38,1.5-1.54.94-.16,1.81.26,1.92.95Z"/>
                <path class="cls-12" d="m43.45,104.79s.05.15-.01.4c-.02.13-.09.28-.18.44-.1.16-.24.32-.42.47-.18.15-.4.3-.66.4-.31.12-.49.18-.88.2-.33,0-.68-.04-1.02-.24-.34-.18-.64-.54-.74-1v-.08s0-.01,0-.01v-.08s0-.11,0-.11c0-.07.03-.24.06-.35.07-.24.17-.4.31-.54.25-.3.57-.46.88-.57.31-.09.62-.13.9-.11.25.01.55.07.76.16.22.08.41.18.55.3.14.12.26.23.32.35.14.22.13.39.15.38Zm0,0s-.01-.16-.17-.36c-.14-.21-.47-.43-.9-.46-.23-.02-.41,0-.66.07-.23.06-.44.18-.64.31-.18.14-.36.3-.45.48-.05.08-.08.19-.1.23,0,.03-.02,0-.02.08v.11s.01.06.01.06v.03s0,.01,0,.01h0c0,.07,0-.07,0-.05.02.26.39.58.84.7.17.06.53.1.71.08.24,0,.46-.07.65-.15.39-.17.63-.49.69-.73.08-.25.02-.4.04-.4Z"/>
              </g>
              <path class="cls-3" d="m43.35,104.81c.12.69-.53,1.37-1.45,1.53-.92.16-1.76-.27-1.87-.96-.12-.69.53-1.37,1.45-1.53.92-.16,1.76.27,1.87.96Z"/>
              <path class="cls-12" d="m42.6,104.87c.11.65-.38,1.28-1.09,1.4-.71.12-1.38-.31-1.49-.96-.11-.65.37-1.28,1.09-1.4.71-.12,1.38.31,1.49.96Z"/>
              <path class="cls-2" d="m41.58,104.94c.07.4-.17.49-.62.57-.44.08-.92.11-.99-.29-.07-.4.23-.79.68-.87.44-.07.86.19.93.6Z"/>
              <path class="cls-9" d="m33.39,107.78l.54-.79s1.35.45,1.81.6c.45.15,1.55.9,1.55.9,0,0-2.23-.37-2.61-.44-.38-.08-1.29-.26-1.29-.26Z"/>
              <path class="cls-10" d="m27.23,112.54s.93-.75,1.75-1.22c.82-.47,5.52-2.09,6.01-2.22.49-.13,2.29-.61,2.29-.61,0,0-4.67,1.83-5.09,1.96-.42.13-4.97,2.1-4.97,2.1Z"/>
              <path class="cls-8" d="m139.87,127.56s-40.46-9.53-40.56-8.95h0c-2.05,0-13.15.03-18.11.54-5.49.56-12.92,2.42-12.92,2.42,0,0,8.74,1.3,10.79,1.3s9.21-1.12,11.9-1.49c2.5-.34,6.91-1.49,7.93-1.76.74.24,4.29,1.51,12.75,5.82,4.81,2.45,19.48,5,25.54,5.72.86.1,3.18.05,2.5-1.3-.21-.42-.33-.64-.41-.77.22,0,.92,0,1.08-.48.19-.58-.48-1.06-.48-1.06Z"/>
              <path class="cls-7" d="m93.41,117.39s6.2,2.82,8.27,4.89c2.07,2.07,7.33,1.13,9.02.75,1.69-.38.19,1.88,0,2.82-.19.94-8.27-1.69-9.58-3.01-1.32-1.32-7.89-4.51-7.89-4.51l.19-.94Z"/>
            </g>
            <path class="cls-2" d="m100.39,116.1c-.31-.48-.49-.84-.49-.84,0,0,.27.34.49.84Z"/>
          </g>
          <path class="cls-4" d="m66.89,106.04s10.37-1.42,19.99.05c7.68,1.18,11.79,5.21,13.64,8.15-1.15,4.15-3.85,12.88-7.61,18.46-2.56,3.8-6.68,7.09-10.15,9.43-10.96-7.61-22.21-15.47-26.96-20.29-10.34-10.49,11.08-15.81,11.08-15.81Z"/>
          <path class="cls-6" d="m95.28,108.28c.47.74,6.04,7.38,6.24,7.92.99,2.66-2.09,7.43.81,8.17,2.9.74,6.69,4.98,6.69,4.98,0,0-8.87,2.2-8.27,3.38-2.58-.39-5.02-.84-7.13-1.36,2.71-6.29.59-19.25,1.66-23.11Z"/>
          <path class="cls-15" d="m96.21,145.4s7.53,5.08,11.74,9.36c4.21,4.29,3.25,13.12,1.28,7.8-1.07-2.88-13.57-11.47-26.46-20.42,1.47-.99,3.05-2.17,4.59-3.47,3.2,2.17,6.68,4.61,10.21,7.12-.85-.24-1.36-.38-1.36-.38Z"/>
          <path class="cls-13" d="m90.25,135.96c2.02.73,4.18,1.49,6.41,2.26h-.09s15.94,5.99,19.91,8.55c3.97,2.56,2.72,6.25,1.13,5.23-1.34-.86-15.55-4.93-20.05-6.21-3.53-2.51-7.01-4.94-10.21-7.12,1-.85,1.98-1.76,2.89-2.71Z"/>
          <path class="cls-14" d="m92.91,132.71c.27-.4.5-.84.7-1.32,2.11.52,4.55.96,7.13,1.36.13.26.69.47,1.88.6,6.73.73,10.43,5.82,10.43,5.82l-16.4-.94c-2.23-.76-4.39-1.53-6.41-2.26.99-1.03,1.9-2.12,2.67-3.25Z"/>
        </g>
      </g>
    </g>
  </g>
</svg>