<?xml version="1.0" encoding="UTF-8"?>
<svg xmlns="http://www.w3.org/2000/svg" viewBox="0 0 166 204">
  <defs>
    <style>
      .cls-1 {
        fill: none;
      }

      .cls-2 {
        fill: #e6e7e8;
      }

      .cls-3 {
        fill: #f7941e;
      }

      .cls-4 {
        fill: #939598;
      }

      .cls-5 {
        fill: #d12f3e;
      }

      .cls-6 {
        fill: #bcbec0;
      }

      .cls-7 {
        fill: #bfc2c4;
      }

      .cls-8 {
        fill: #aaadb2;
      }

      .cls-9, .cls-10 {
        fill: #be1e2d;
      }

      .cls-11 {
        fill: #d3dee2;
      }

      .cls-12 {
        fill: #a23;
      }

      .cls-13 {
        fill: #231f20;
      }

      .cls-14 {
        fill: #414042;
      }

      .cls-15 {
        fill: #6d6e71;
      }

      .cls-16 {
        fill: #808285;
      }

      .cls-17 {
        fill: #58595b;
      }

      .cls-10 {
        mix-blend-mode: multiply;
      }

      .cls-18 {
        isolation: isolate;
      }
    </style>
  </defs>
  <g class="cls-18">
    <g id="Layer_2" data-name="Layer 2">
      <g id="Layer_2-2" data-name="Layer 2">
        <rect class="cls-1" width="166" height="204"/>
        <g>
          <g>
            <path class="cls-6" d="m76.12,110.69c-1.5-.71-3.6,3.53-3.6,3.53,0,0-10.18,33.1-25.51,36.83.27-1.25.56-2.58.88-3.98.51-2.26,7.75-14.01,4.61-13-3.14,1.02-4.56-1.49.95-14.84,5.51-13.35-.84-24.88,6.69-30.04,5.36-3.67,25.08,10.98,36.02,19.74-4.73,2.47-12.63,5.28-20.04,1.76Z"/>
            <g>
              <path class="cls-8" d="m66.39,129.46l6.01,7.3c2.67,6.87,2.07,10.02,1.28,12.74l-10.32-14.33c1.09-1.9,2.11-3.82,3.02-5.71Z"/>
              <path class="cls-8" d="m72.52,114.22s2.1-4.24,3.6-3.53c7.41,3.52,15.31.71,20.04-1.76,4.44,3.55,7.43,6.14,7.43,6.14,0,0,3.32,4.61-2.18,7.21-2.23,1.05-3.72-1.17-4.37-2.49-.16-.53-.39-.89-.39-.89,0,0,.13.38.39.89.38,1.23.43,3.37-3.56,3.86-2.13.26-3.54-2.77-3.54-2.77,0,0,.78,5.71-3.23,5.22-4.68-.57-6.72-5.03-8.11-4.26-.78.43,2.41,11.77-2.69,20.55l-9.51-12.92c3.91-8.05,6.12-15.24,6.12-15.24Z"/>
              <path class="cls-4" d="m63.37,135.16l6.53,9.6c4.79,7.54,2.12,9.44,1.5,12.51l-10.62-17.94c.91-1.35,1.78-2.75,2.59-4.17Z"/>
              <path class="cls-14" d="m47.01,151.05c1.1-.27,2.17-.7,3.21-1.25l-3.57,28.63c-2.35-.21-2.46-5.52-2.46-5.52,0,0-1.3-2.72,2.82-21.87Z"/>
              <path class="cls-17" d="m53.09,147.94l2.07,25c-1.15,5.73-2.41,4.84-4.38,4.66l-.56-27.8c.98-.51,1.94-1.14,2.87-1.86Z"/>
              <path class="cls-16" d="m60.78,139.34l6.66,15.23c-.11.53-.21,1.06-.31,1.58-.82,4.46,1.31,8.79-.34,11.32l-9.67-23.36c1.29-1.46,2.51-3.07,3.66-4.76Z"/>
              <path class="cls-15" d="m57.12,144.1l6.2,22.4c.19,5.93-1.32,7.82-4.19,8.76l-6.04-27.32c1.41-1.09,2.75-2.38,4.03-3.84Z"/>
            </g>
          </g>
          <g>
            <path class="cls-12" d="m91.17,117.75s6.2,2.82,8.27,4.89c2.07,2.07,7.33,1.13,9.02.75,1.69-.38.19,1.88,0,2.82-.19.94-8.27-1.69-9.58-3.01-1.32-1.32-7.9-4.51-7.9-4.51l.19-.94Z"/>
            <path class="cls-11" d="m100.3,111.99c-5.55-3.85-12.03-8.01-27.64-9.99-5.46-.69-10.75-.55-15.45.07-3.96-1.87-11.29-4.28-14.35-3.38-4.8,1.41-7.46,5.56-10.01,8.81-2.16,2.76,5.37,3.95,10.16,5.36.29.08.62.14.98.16,4.11,1.03,10.02,5.94,19.64,8.15,12.4,2.84,27.59.3,34.73-1.74,5.79,2.37,30.97,11.64,34.5,12.11,1.68.22,3.48-3.37,3.84-5.54.18-1.09-4.19-7.4-12.48-8.84-18.01-3.14-23.94-5.17-23.94-5.17Z"/>
            <g>
              <path class="cls-5" d="m32.75,107.6s-4.5,1.48-5,2.37c-.4.72-.91,1.84-1.09,2.24,1.13-.98,3.71-2.42,9.99-3.91l-3.9-.7Z"/>
              <path class="cls-9" d="m26.67,112.22c-.04.09-.07.15-.07.15l7.88-2.13s1.05-1.61,1.71-1.76l.66-.15-.19-.03c-6.28,1.49-8.86,2.93-9.99,3.91Z"/>
            </g>
            <g>
              <path class="cls-3" d="m42.82,104.61c.12.69-.55,1.38-1.5,1.54-.94.16-1.81-.26-1.92-.95-.12-.69.55-1.38,1.5-1.54.94-.16,1.81.26,1.92.95Z"/>
              <path class="cls-13" d="m42.82,104.61s.05.15-.01.4c-.02.13-.09.28-.18.44-.09.16-.24.32-.42.47-.18.15-.4.3-.66.4-.31.12-.49.18-.88.2-.33,0-.69-.04-1.02-.24-.34-.18-.64-.54-.74-1v-.09s0-.03,0-.03v-.17c0-.07.03-.24.06-.35.07-.24.17-.4.31-.54.25-.3.57-.46.88-.57.31-.09.62-.13.9-.11.25.01.55.07.76.16.22.09.41.19.55.3.14.12.26.23.32.35.14.22.13.39.15.38Zm0,0s-.01-.16-.17-.36c-.14-.21-.47-.43-.9-.46-.22-.02-.41,0-.67.07-.22.06-.44.18-.63.31-.18.14-.36.3-.45.48-.05.08-.08.19-.1.23,0,.03-.02,0-.02.08v.11s.01.06.01.06v.03s0,.01,0,.01h0s0,.08,0-.05c.02.26.39.58.84.7.17.06.53.1.71.08.24,0,.46-.07.65-.15.39-.17.63-.49.69-.73.08-.25.02-.4.04-.4Z"/>
            </g>
            <path class="cls-3" d="m42.72,104.63c.12.69-.53,1.37-1.45,1.53-.92.16-1.76-.27-1.87-.96-.12-.69.53-1.37,1.45-1.53.92-.16,1.76.27,1.87.96Z"/>
            <path class="cls-13" d="m41.96,104.69c.11.65-.38,1.28-1.09,1.4-.71.12-1.38-.31-1.49-.96-.11-.65.37-1.28,1.09-1.4.71-.12,1.38.31,1.49.96Z"/>
            <path class="cls-2" d="m40.95,104.76c.07.4-.17.49-.62.57-.44.08-.92.11-.99-.29-.07-.4.23-.79.68-.87.44-.08.86.19.93.6Z"/>
            <path class="cls-9" d="m32.75,107.6l.54-.79s1.35.45,1.81.6c.45.15,1.55.9,1.55.9,0,0-2.23-.37-2.61-.44-.38-.08-1.29-.26-1.29-.26Z"/>
            <path class="cls-10" d="m26.6,112.37s.93-.75,1.75-1.22c.82-.48,5.52-2.09,6.01-2.23.49-.13,2.29-.61,2.29-.61,0,0-4.67,1.83-5.09,1.96-.42.13-4.97,2.1-4.97,2.1Z"/>
            <path class="cls-7" d="m136.5,126.37s-37.72-8.51-37.82-7.93h0c-2.05,0-13.15.03-18.11.54-5.49.56-12.92,2.42-12.92,2.42,0,0,8.74,1.3,10.79,1.3s9.21-1.12,11.9-1.49c2.5-.34,6.91-1.49,7.93-1.76.74.24,4.29,1.51,12.75,5.82,4.81,2.45,16.95,7.28,23.01,8,.86.1,2.97-3.25,2.29-4.6-.21-.42-.33-.65-.41-.77.22,0,.92,0,1.08-.49.19-.58-.48-1.06-.48-1.06Z"/>
            <path class="cls-5" d="m92.78,117.22s6.2,2.82,8.27,4.89c2.07,2.07,7.33,1.13,9.02.75,1.69-.38.19,1.88,0,2.82-.19.94-8.27-1.69-9.58-3.01s-7.89-4.51-7.89-4.51l.19-.94Z"/>
          </g>
          <path class="cls-2" d="m77.89,109.44c-1.58-.53-3.15,3.94-3.15,3.94,0,0-6.09,34.09-20.85,39.65.12-1.28.25-2.63.39-4.06.24-2.31,6-14.85,3-13.46-3,1.39-4.71-.93-.86-14.85,3.85-13.92-3.85-24.59,3-30.63,4.87-4.29,26.23,7.86,38.15,15.23-4.39,3.03-11.9,6.78-19.68,4.18Z"/>
          <path class="cls-2" d="m99.76,115.93c-.31-.48-.49-.84-.49-.84,0,0,.27.33.49.84Z"/>
          <g>
            <path class="cls-8" d="m70.51,129.24l6.85,6.51c3.49,6.5,3.27,9.7,2.82,12.5l-11.98-12.98c.86-2.02,1.63-4.05,2.31-6.03Z"/>
            <path class="cls-8" d="m74.74,113.37s1.58-4.46,3.15-3.94c7.78,2.6,15.29-1.15,19.68-4.18,4.83,2.99,8.12,5.19,8.12,5.19,0,0,3.86,4.18-1.29,7.42-2.08,1.32-3.83-.71-4.65-1.94-.23-.5-.49-.84-.49-.84,0,0,.18.36.49.84.53,1.18.84,3.29-3.07,4.27-2.08.52-3.85-2.32-3.85-2.32,0,0,1.47,5.57-2.57,5.57-4.71,0-7.28-4.18-8.57-3.25-.72.52,3.82,11.39-.18,20.72l-11.01-11.67c2.91-8.47,4.23-15.87,4.23-15.87Z"/>
            <path class="cls-4" d="m68.2,135.27l7.64,8.74c5.67,6.91,3.25,9.11,3,12.24l-12.72-16.52c.74-1.45,1.43-2.95,2.07-4.46Z"/>
            <path class="cls-14" d="m53.89,153.02c1.06-.4,2.07-.96,3.04-1.63l-.07,28.86c-2.36.08-3.12-5.18-3.12-5.18,0,0-1.62-2.55.15-22.05Z"/>
            <path class="cls-17" d="m59.55,149.2l5.09,24.56c-.45,5.83-1.81,5.09-3.78,5.16l-3.93-27.52c.91-.63,1.79-1.37,2.62-2.2Z"/>
            <path class="cls-16" d="m66.13,139.73l8.46,14.31c-.04.55-.08,1.08-.11,1.61-.27,4.53,2.37,8.56,1.04,11.27l-12.44-22.02c1.1-1.61,2.12-3.35,3.06-5.17Z"/>
            <path class="cls-15" d="m63.08,144.9l8.87,21.48c.91,5.87-.36,7.92-3.09,9.2l-9.3-26.39c1.26-1.25,2.44-2.7,3.53-4.3Z"/>
          </g>
        </g>
      </g>
    </g>
  </g>
</svg>