<?xml version="1.0" encoding="UTF-8"?>
<svg xmlns="http://www.w3.org/2000/svg" viewBox="0 0 166 204">
  <defs>
    <style>
      .cls-1 {
        fill: none;
      }

      .cls-2 {
        fill: #e6e7e8;
      }

      .cls-3 {
        fill: #f7941e;
      }

      .cls-4 {
        fill: #f1f2f2;
      }

      .cls-5 {
        fill: #939598;
      }

      .cls-6 {
        fill: #d12f3e;
      }

      .cls-7 {
        fill: #a7a9ac;
      }

      .cls-8 {
        fill: #bfc2c4;
      }

      .cls-9, .cls-10 {
        fill: #be1e2d;
      }

      .cls-11 {
        fill: #d1d3d4;
      }

      .cls-12 {
        fill: #a23;
      }

      .cls-13 {
        fill: #231f20;
      }

      .cls-14 {
        fill: #414042;
      }

      .cls-15 {
        fill: #6d6e71;
      }

      .cls-16 {
        fill: #808285;
      }

      .cls-10 {
        mix-blend-mode: multiply;
      }

      .cls-17 {
        isolation: isolate;
      }
    </style>
  </defs>
  <g class="cls-17">
    <g id="Layer_2" data-name="Layer 2">
      <g id="Layer_2-2" data-name="Layer 2">
        <rect class="cls-1" width="166" height="204"/>
        <g>
          <g>
            <path class="cls-14" d="m57.42,156.52c-.4.78,2.18,11.39,2.02,16.45-.96,29.27-8.51,2.98-8.54,5.96-.14,18.31-3.84,20.02-3.84,20.02,0,0-1.5-19.27-2.21-18.15-.99-2.41-1.86-4.74-2.5-6.81,5.5-10.26,11.22-16.41,15.07-17.48Z"/>
            <path class="cls-14" d="m32.26,183.23s-2.44,8.75-5.17,14.1c-2.74,5.35-11.42,7.23-7,3.68,2.39-1.92,6.6-16.5,11.02-31.56,1.41,1.08,3.02,2.21,4.74,3.26-1.05,3.72-2.26,7.8-3.52,11.93-.04-.88-.07-1.41-.07-1.41Z"/>
            <path class="cls-14" d="m40.31,172.22c-.21,2.14-.42,4.42-.61,6.77l-.02-.09s-1.9,16.92-3.4,21.4c-1.5,4.48-5.39,4.17-4.79,2.38.51-1.51.96-16.28,1.1-20.96,1.57-4.03,3.07-8.01,4.39-11.64,1.07.76,2.19,1.49,3.34,2.13Z"/>
            <path class="cls-14" d="m40.86,174.06c.48.03.98,0,1.5-.07.64,2.08,1.51,4.4,2.5,6.81-.15.24.38.72.46,1.92,1.41,23.57-2.43,18.4-2.43,18.4l-4.82-21.02c-.49-2.3-.94-4.55-1.36-6.66,1.39.31,2.79.54,4.16.61Z"/>
            <path class="cls-14" d="m56.85,156.46s1.24,17.23,4.55,17.6c3.31.37,8.81-12.97,12.45-19.35,3.64-6.37,9.09-14.63,8.78-18.61-.31-3.98-1.97-12.28-1.33-15.03.63-2.76-8.59,3.21-8.59,3.21,0,0-1.04,11.84-7.23,19.69-6.19,7.85-8.89,11.39-8.89,11.39l.26,1.1Z"/>
            <path class="cls-11" d="m51.9,124.82c-2.57,2.89-24.56,44.34-21.16,47.64,3.41,3.3,6.48,5.19,9.31,4.51,2.83-.68,8.44-5.38,10.66-7.04,2.22-1.65,3.35-7.91,3.35-7.91,0,0,5.24-3.12,5.96-4.79.72-1.67,17.66-15.02,19.41-25.21.43-2.51-1.24-8.31-1.24-8.31,0,0,8.34-4.24,7.39-6.63-.95-2.39,2.93-5.72,2.93-5.72,0,0-18.57-3.22-22.19-2.73-3.62.49-9.41,10.56-14.43,16.19Z"/>
          </g>
          <path class="cls-12" d="m92.01,117.52s6.2,2.82,8.27,4.89c2.07,2.07,7.33,1.13,9.02.75,1.69-.38.19,1.88,0,2.82-.19.94-8.27-1.69-9.58-3.01-1.32-1.32-7.9-4.51-7.9-4.51l.19-.94Z"/>
          <path class="cls-4" d="m101.14,111.76c-5.55-3.85-12.03-8.01-27.64-9.99-5.46-.69-10.75-.55-15.45.07-3.96-1.87-11.29-4.28-14.35-3.38-4.8,1.41-7.46,5.56-10.01,8.81-2.16,2.76,5.37,3.95,10.16,5.37.29.08.62.13.98.16,4.11,1.03,10.02,5.94,19.64,8.15,12.4,2.84,27.59.3,34.73-1.74,5.79,2.37,26.09,9.62,29.62,10.09,1.68.22,2.49-1.51,2.86-3.68.18-1.09-.02-7.54-8.83-8.06-17.42-1.03-21.73-5.78-21.73-5.78Z"/>
          <g>
            <path class="cls-6" d="m33.6,107.37s-4.5,1.48-5,2.38c-.4.72-.91,1.84-1.09,2.24,1.13-.98,3.71-2.42,9.99-3.91l-3.9-.7Z"/>
            <path class="cls-9" d="m27.51,111.98c-.04.09-.07.15-.07.15l7.88-2.13s1.05-1.61,1.71-1.76l.66-.15-.19-.03c-6.28,1.49-8.86,2.93-9.99,3.91Z"/>
          </g>
          <g>
            <path class="cls-3" d="m43.66,104.38c.12.69-.55,1.38-1.5,1.54-.94.16-1.81-.27-1.92-.95-.12-.69.55-1.38,1.5-1.54.94-.16,1.81.27,1.92.95Z"/>
            <path class="cls-13" d="m43.66,104.38s.05.15-.01.4c-.02.13-.09.28-.18.44-.1.16-.24.32-.42.47-.18.15-.4.3-.66.4-.31.12-.49.18-.88.2-.33,0-.68-.04-1.02-.24-.17-.08-.33-.23-.46-.39-.14-.2-.21-.32-.28-.67v-.22c0-.08.03-.24.06-.35.07-.24.17-.4.3-.54.25-.3.57-.46.88-.57.31-.09.62-.13.9-.11.24.01.55.07.76.16.22.09.41.19.55.3.14.12.26.23.32.35.14.22.13.39.15.38Zm0,0s-.01-.16-.17-.36c-.14-.21-.47-.43-.9-.46-.22-.02-.41,0-.66.07-.22.06-.44.18-.64.31-.18.14-.36.3-.45.48-.05.08-.08.19-.1.23,0,.03-.02,0-.02.08v.22c0-.13.01-.04,0-.06h0s0,0,0,0h0s0,.02,0,.02v.02s.02.05.02.05c0,.04.04.06.05.1.05.06.1.14.18.2.14.14.37.23.58.3.17.06.53.1.71.08.24,0,.46-.07.65-.15.39-.17.63-.49.69-.73.08-.25.02-.4.04-.4Z"/>
          </g>
          <path class="cls-3" d="m43.57,104.4c.12.69-.53,1.37-1.45,1.53-.92.16-1.76-.27-1.87-.96-.12-.69.53-1.37,1.45-1.53.92-.16,1.76.27,1.87.96Z"/>
          <path class="cls-13" d="m42.81,104.46c.11.65-.38,1.28-1.09,1.4-.71.12-1.38-.31-1.49-.96-.11-.65.37-1.28,1.09-1.4.71-.12,1.38.3,1.49.96Z"/>
          <path class="cls-2" d="m41.8,104.53c.07.4-.17.49-.62.57-.44.08-.92.11-.99-.29-.07-.4.23-.79.68-.87.44-.08.86.19.93.6Z"/>
          <path class="cls-9" d="m33.6,107.37l.54-.79s1.35.45,1.81.6c.45.15,1.55.89,1.55.89,0,0-2.23-.37-2.61-.44-.38-.07-1.29-.26-1.29-.26Z"/>
          <path class="cls-10" d="m27.44,112.13s.93-.75,1.75-1.22c.82-.48,5.52-2.09,6.01-2.23.49-.13,2.29-.61,2.29-.61,0,0-4.67,1.83-5.09,1.96s-4.97,2.1-4.97,2.1Z"/>
          <path class="cls-8" d="m131.49,125.97s-31.87-8.34-31.96-7.76h0c-2.06,0-13.15.04-18.11.54-5.49.56-12.92,2.42-12.92,2.42,0,0,8.74,1.3,10.79,1.3s9.21-1.12,11.9-1.49c2.5-.35,6.91-1.49,7.93-1.76.74.24,4.29,1.51,12.75,5.82,4.81,2.45,10.88,3.82,16.95,4.53.86.1,3.18.05,2.5-1.3-.21-.42-.33-.65-.41-.77.22,0,.92,0,1.08-.48.19-.58-.48-1.06-.48-1.06Z"/>
          <path class="cls-6" d="m93.62,116.98s6.2,2.82,8.27,4.89c2.07,2.07,7.33,1.13,9.02.75,1.69-.38.19,1.88,0,2.82-.19.94-8.27-1.69-9.58-3.01-1.32-1.31-7.89-4.51-7.89-4.51l.19-.94Z"/>
          <g>
            <path class="cls-5" d="m52.05,155.4c-.44.76,1.53,11.5,1.07,16.54-2.63,29.17-8.67,2.48-8.87,5.47-1.19,18.27-4.98,19.77-4.98,19.77,0,0-.39-19.33-1.16-18.25-.85-2.46-1.59-4.84-2.11-6.94,6.08-9.93,12.14-15.74,16.05-16.58Z"/>
            <path class="cls-14" d="m25.4,180.62s-2.94,8.59-5.97,13.78c-3.04,5.18-11.81,6.56-7.19,3.27,2.5-1.78,7.54-16.09,12.81-30.87,1.34,1.16,2.89,2.38,4.55,3.53-1.26,3.66-2.7,7.65-4.2,11.71,0-.89.02-1.41.02-1.41Z"/>
            <path class="cls-15" d="m34.07,170.09c-.33,2.12-.68,4.39-1,6.72v-.09s-2.88,16.78-4.64,21.17c-1.76,4.39-5.62,3.86-4.92,2.1.59-1.48,1.9-16.2,2.3-20.86,1.79-3.94,3.53-7.82,5.05-11.37,1.02.82,2.1,1.61,3.21,2.32Z"/>
            <path class="cls-16" d="m34.51,171.97c.48.05.98.05,1.5.01.52,2.11,1.26,4.48,2.11,6.94-.17.23.34.74.34,1.94.06,23.61-3.48,18.23-3.48,18.23l-3.61-21.26c-.36-2.33-.68-4.6-.98-6.73,1.37.39,2.76.7,4.12.85Z"/>
            <path class="cls-7" d="m51.49,155.31s.25,17.28,3.54,17.83c3.29.56,9.54-12.45,13.54-18.6,4-6.15,9.91-14.08,9.83-18.08-.08-3.99-1.26-12.37-.47-15.09.79-2.72-8.76,2.71-8.76,2.71,0,0-1.72,11.76-8.35,19.24-6.63,7.48-9.53,10.87-9.53,10.87l.2,1.11Z"/>
            <path class="cls-4" d="m48.36,123.44c-2.73,2.73-27.07,42.86-23.86,46.35,3.21,3.49,6.17,5.55,9.03,5.04,2.86-.51,8.73-4.89,11.05-6.41,2.31-1.52,3.8-7.7,3.8-7.7,0,0,5.41-2.82,6.23-4.44.82-1.62,18.5-13.99,20.83-24.06.57-2.48-.76-8.36-.76-8.36,0,0,8.57-3.75,7.76-6.19-.81-2.44,3.26-5.55,3.26-5.55,0,0-18.35-4.28-22-4-3.65.28-10,10-15.33,15.33Z"/>
          </g>
        </g>
      </g>
    </g>
  </g>
</svg>