<?xml version="1.0" encoding="UTF-8"?>
<svg xmlns="http://www.w3.org/2000/svg" viewBox="0 0 166 204">
  <defs>
    <style>
      .cls-1 {
        fill: none;
      }

      .cls-2 {
        fill: #e6e7e8;
      }

      .cls-3 {
        fill: #f7941e;
      }

      .cls-4 {
        fill: #f1f2f2;
      }

      .cls-5 {
        fill: #d12f3e;
      }

      .cls-6, .cls-7 {
        fill: #be1e2d;
      }

      .cls-8 {
        fill: #d0d4d8;
      }

      .cls-9 {
        fill: #d1d3d4;
      }

      .cls-10 {
        fill: #d4d6d8;
      }

      .cls-11 {
        fill: #a23;
      }

      .cls-12 {
        fill: #231f20;
      }

      .cls-13 {
        fill: #414042;
      }

      .cls-14 {
        fill: #6d6e71;
      }

      .cls-15 {
        fill: #808285;
      }

      .cls-16 {
        fill: #58595b;
      }

      .cls-7 {
        mix-blend-mode: multiply;
      }

      .cls-17 {
        isolation: isolate;
      }
    </style>
  </defs>
  <g class="cls-17">
    <g id="Layer_2" data-name="Layer 2">
      <g id="Layer_2-2" data-name="Layer 2">
        <rect class="cls-1" width="166" height="204"/>
        <g>
          <g>
            <path class="cls-2" d="m47.61,93.81c.29-3.56,8.98,4.89,17.8,14.49,3.04-4.2,7.52-7.67,12.59-9.98l-.53-1.76s-30.26-10.33-32.21-6.5c-.62,1.22,1.16,6.9,3.87,14.21-1.03-4.27-1.72-8.17-1.53-10.46Z"/>
            <path class="cls-8" d="m65.41,108.31c-8.83-9.6-19.2-18.66-19.49-15.1-.19,2.29,2.19,6.79,3.22,11.06,5.81,15.64,15.9,38.75,15.9,41.62,0,1.57,1.13,1.81,2.65,1.31-2.54-6.65-3.72-14.94-5.68-22.14-1.67-6.1-.09-11.91,3.41-16.76Z"/>
          </g>
          <g>
            <path class="cls-14" d="m63.32,111.79l7.77,33.56c1.71-1.22,3.3-2.77,4.03-4.06.1-.17.2-.4.31-.68l-9.08-33.53c-1.21,1.48-2.24,3.05-3.04,4.71Z"/>
            <path class="cls-15" d="m62,125.07c1.97,7.2,3.14,15.48,5.68,22.14,1.04-.34,2.25-1.02,3.41-1.85l-7.77-33.56c-1.96,4.04-2.61,8.57-1.32,13.27Z"/>
            <path class="cls-16" d="m68.31,104.94c-.69.69-1.34,1.4-1.95,2.14l9.08,33.53c.68-1.69,1.59-5.23,2.53-9.27l-9.66-26.4Z"/>
            <path class="cls-13" d="m82.03,111.86l-4.03-13.54c-3.65,1.66-6.98,3.92-9.7,6.61l9.66,26.4c2-8.61,4.07-19.48,4.07-19.48Z"/>
          </g>
          <path class="cls-11" d="m97.98,119.02s6.88,3.13,9.17,5.42c2.29,2.29,8.13,1.25,10.01.83,1.87-.42.21,2.09,0,3.13-.21,1.04-9.18-1.88-10.63-3.33s-8.76-5-8.76-5l.21-1.04Z"/>
          <path class="cls-2" d="m135.56,119.01c-4.08-1.97-27.45-6.39-27.45-6.39-6.16-4.27-13.34-8.88-30.66-11.08-6.06-.77-11.92-.61-17.14.08-4.39-2.07-12.85-3.93-16.25-2.93-5.32,1.57-7.95,5.36-10.77,8.96-2.4,3.06,5.95,4.38,11.27,5.95.32.1.69.15,1.09.18,4.56,1.14,11.12,6.59,21.79,9.04,13.75,3.15,30.6.33,38.53-1.93,6.42,2.63,27.17,8.53,31.09,9.05,4.7.63,2.59-8.94-1.5-10.91Z"/>
          <g>
            <path class="cls-5" d="m33.18,107.76s-4.99,1.64-5.54,2.63c-.45.8-1.01,2.04-1.21,2.49,1.25-1.09,4.11-2.69,11.08-4.34l-4.32-.78Z"/>
            <path class="cls-6" d="m26.43,112.87c-.05.11-.08.17-.08.17l8.74-2.36s1.17-1.78,1.9-1.95l.73-.17-.22-.03c-6.96,1.65-9.82,3.25-11.08,4.34Z"/>
          </g>
          <g>
            <path class="cls-3" d="m44.34,104.44c.13.76-.61,1.53-1.66,1.71-1.05.18-2-.29-2.13-1.06-.13-.76.61-1.53,1.66-1.71,1.05-.18,2,.29,2.13,1.06Z"/>
            <path class="cls-12" d="m44.34,104.44s.05.17-.02.45c-.02.15-.11.31-.21.48-.11.18-.27.35-.47.51-.2.16-.45.32-.73.43-.34.13-.55.19-.96.21-.36,0-.75-.05-1.11-.27-.18-.09-.36-.24-.49-.43-.15-.21-.23-.34-.3-.71v-.25c0-.08.04-.25.07-.38.08-.25.18-.43.33-.59.27-.33.62-.5.95-.63.34-.11.67-.15.98-.13.27,0,.61.07.83.16.24.09.45.2.61.33.15.13.29.26.35.39.16.24.15.43.16.42Zm0,0s-.02-.17-.19-.4c-.07-.12-.21-.24-.38-.33-.17-.09-.38-.17-.62-.19-.25-.02-.46-.01-.74.07-.25.06-.5.19-.72.33-.21.16-.41.33-.52.54-.06.09-.1.22-.12.27,0,.04-.03.02-.02.1v.25c0-.14.01-.04,0-.07h0s0,0,0,0h0s0,.02,0,.02v.03s.02.06.02.06c0,.04.05.08.06.12.05.07.12.16.21.23.17.15.43.26.67.33.2.07.59.1.79.07.26,0,.51-.08.72-.18.22-.09.39-.24.52-.38.13-.14.22-.3.25-.44.09-.27.02-.45.04-.44Z"/>
          </g>
          <path class="cls-3" d="m44.24,104.46c.13.76-.59,1.52-1.61,1.7-1.02.17-1.95-.3-2.08-1.06-.13-.76.59-1.52,1.61-1.7,1.02-.18,1.95.3,2.08,1.06Z"/>
          <path class="cls-12" d="m43.4,104.52c.12.72-.42,1.41-1.21,1.55-.79.13-1.53-.34-1.65-1.06-.12-.72.42-1.42,1.21-1.55.79-.13,1.53.34,1.65,1.06Z"/>
          <path class="cls-2" d="m42.27,104.61c.08.45-.19.54-.68.63-.49.09-1.02.12-1.1-.32-.08-.45.26-.88.75-.96.49-.08.95.21,1.03.66Z"/>
          <path class="cls-6" d="m33.18,107.76l.6-.88s1.5.5,2,.67c.5.17,1.72.99,1.72.99,0,0-2.47-.41-2.89-.49-.42-.08-1.43-.29-1.43-.29Z"/>
          <path class="cls-7" d="m26.35,113.04s1.04-.83,1.94-1.36c.91-.53,6.12-2.32,6.67-2.47.55-.15,2.54-.68,2.54-.68,0,0-5.18,2.03-5.64,2.18-.46.15-5.51,2.33-5.51,2.33Z"/>
          <path class="cls-10" d="m60.15,104.44s7.05-5.94,8.68-7.31c1.64-1.36,3.27-6.27,3.27-6.27,0,0-7.36-6.27-3.81-8.45,3.54-2.18,44.43-5.72,75.78,21.81,31.35,27.54,6,9,.54,10.63-3.4,1.02-36.26-15.26-41.16-15.54-4.91-.27,5.72,4.63,3,6.27-2.73,1.64-5.68,3.78-7.88,4.12-9.58,1.51-38.42-5.27-38.42-5.27Z"/>
          <path class="cls-4" d="m112.25,92.76c-.78-2.73-5.66-4.1-3.9-5.07,1.13-.63,12.22,2.96,19.97,5.58-27.77-15.23-56.85-12.46-59.81-10.64-3.54,2.18,3.82,8.45,3.82,8.45,0,0-15.29-14.92,12.8-4.2l13.85,13.07c11.12-.39,14.06-4.46,13.28-7.2Z"/>
          <g>
            <path class="cls-15" d="m144.68,104.43c-5.14-4.51-10.53-8.18-15.97-11.17-4.6-1.56-10.38-3.46-14.56-4.61l30.58,15.83s-.04-.03-.05-.05Z"/>
            <path class="cls-13" d="m104.7,98.75c.26.35.53.7.79,1.06,7.96,2.2,36.56,16.2,39.72,15.25,1.18-.35,3.29.24,5.56,1.1l-42.04-19.04c-1.14.59-2.49,1.14-4.04,1.62Z"/>
            <path class="cls-14" d="m144.73,104.48l-30.58-15.83c-2.85-.79-4.95-1.23-5.41-.97-1.7.95,2.83,2.26,3.82,4.83l46.33,25.11c-1.87-2.12-6.16-6.13-14.15-13.14Z"/>
            <path class="cls-16" d="m112.55,92.51c.03.08.06.16.08.24.37,1.28-1.11,2.93-3.9,4.37l42.04,19.04c5.53,2.11,11.97,5.83,8.1,1.46l-46.33-25.11Z"/>
          </g>
          <path class="cls-9" d="m131.37,125.6c-3.89-.36-26.84-6.68-26.84-6.68,0,0-24.54.85-32.31-.24-7.77-1.09-19.31-8.02-22.35-8.02-2.41,0-3.59,2.36-3.98,3.34,4.56,1.16,11.11,6.59,21.76,9.03,13.75,3.15,30.6.33,38.53-1.93,6.42,2.63,22.33,10.37,28.26,10.26,2.03-.04,4.84-1.94,5.2-4.6-1.6-.38-5.97-.94-8.27-1.15Z"/>
          <path class="cls-5" d="m99.76,118.42s6.88,3.13,9.18,5.42c2.29,2.29,8.13,1.25,10.01.83,1.88-.42.21,2.09,0,3.13-.21,1.04-9.17-1.88-10.63-3.34s-8.76-5-8.76-5l.21-1.04Z"/>
        </g>
      </g>
    </g>
  </g>
</svg>